#!OML:ASF X:\für Bonn\!DataBase\2005_08_12_Daniel\c3d\Daniel.ASF
:FULLY-SPECIFIED
:DEGREES
275
root 0.987517 17.0256 -17.8269 191.84 158.184 -174.295
lowerback 67.7009 -4.24006 7.65866
upperback 10.6124 0.452273 -4.94267
thorax -9.34664 1.02809 -9.16213
lowerneck 1.10441 -7.56588 -2.81882
upperneck 2.70627 -10.1279 4.63833
head 1.06485 -5.03049 1.82894
rclavicle -3.81667e-014 -6.48038e-014
rhumerus 17.7248 3.12645 -74.6495
rradius 13.5133
rwrist 35.5493
rhand -26.6229 18.3527
rfingers 7.12502
rthumb -0.0558741 -11.627
lclavicle -3.81667e-014 -6.48038e-014
lhumerus -21.4563 -4.32729 89.7492
lradius 45.3112
lwrist 2.91844
lhand -11.8362 -10.3796
lfingers 7.12502
lthumb 14.2148 19.114
rfemur -39.6575 -5.26412 11.5344
rtibia 52.8365
rfoot -23.7631 -10.4324
rtoes -13.989
lfemur -42.9641 -9.90447 -18.1651
ltibia 48.1211
lfoot -14.958 -11.2047
ltoes -12.4488
276
root 0.99104 17.0518 -17.8059 191.322 158.487 -174.481
lowerback 66.9609 -4.13461 7.55831
upperback 10.6766 0.417506 -4.91037
thorax -9.31103 0.992889 -9.0663
lowerneck 1.23186 -7.46091 -2.95579
upperneck 2.57273 -9.98885 4.5947
head 1.00033 -4.96641 1.84848
rclavicle 1.43125e-014 -1.59028e-015
rhumerus 16.5832 3.36248 -74.8736
rradius 13.6244
rwrist 35.5337
rhand -26.5573 18.5654
rfingers 7.12502
rthumb 0.0074822 -11.4144
lclavicle 1.43125e-014 -1.59028e-015
lhumerus -21.2497 -3.61149 89.6096
lradius 44.5639
lwrist 2.44695
lhand -12.0861 -10.246
lfingers 7.12502
lthumb 13.974 19.2644
rfemur -38.8345 -5.14115 11.7475
rtibia 52.257
rfoot -23.5778 -10.3447
rtoes -13.9668
lfemur -42.0715 -9.98659 -18.0216
ltibia 47.7314
lfoot -15.0731 -10.7844
ltoes -12.7162
277
root 0.994659 17.078 -17.7835 190.795 158.779 -174.686
lowerback 66.2088 -4.04019 7.47462
upperback 10.7373 0.384785 -4.86742
thorax -9.27324 0.957607 -8.96574
lowerneck 1.45366 -7.35554 -3.11345
upperneck 2.36856 -9.85022 4.57195
head 0.899874 -4.90402 1.88336
rclavicle -1.43125e-014 -3.37934e-014
rhumerus 15.4338 4.11686 -74.8684
rradius 13.827
rwrist 34.9492
rhand -26.4344 18.5672
rfingers 7.12502
rthumb 0.126156 -11.4125
lclavicle -1.43125e-014 -3.37934e-014
lhumerus -21.0559 -2.85649 89.4589
lradius 43.8519
lwrist 1.95009
lhand -12.3451 -10.0097
lfingers 7.12502
lthumb 13.7244 19.5177
rfemur -38.0062 -5.01077 11.9794
rtibia 51.6843
rfoot -23.4049 -10.2686
rtoes -13.953
lfemur -41.1627 -10.0583 -17.8632
ltibia 47.3359
lfoot -15.1642 -10.3817
ltoes -12.8378
278
root 0.997249 17.1033 -17.7599 190.272 159.088 -174.888
lowerback 65.488 -3.93473 7.38876
upperback 10.7723 0.3648 -4.83435
thorax -9.25841 0.926713 -8.88245
lowerneck 1.69284 -7.23957 -3.29525
upperneck 2.16235 -9.70005 4.60539
head 0.799801 -4.83566 1.94104
rclavicle 1.74931e-014 -4.77083e-014
rhumerus 14.2962 4.66561 -74.9332
rradius 14.0058
rwrist 34.5805
rhand -26.2805 18.6307
rfingers 7.12502
rthumb 0.274794 -11.3489
lclavicle 1.74931e-014 -4.77083e-014
lhumerus -20.8911 -2.13701 89.3004
lradius 43.1542
lwrist 1.49136
lhand -12.5735 -9.79561
lfingers 7.12502
lthumb 13.5043 19.7465
rfemur -37.1701 -4.86288 12.2154
rtibia 51.1048
rfoot -23.2556 -10.2154
rtoes -14.0494
lfemur -40.2572 -10.1171 -17.701
ltibia 46.9381
lfoot -15.2473 -10.0193
ltoes -12.9286
279
root 0.999303 17.1289 -17.736 189.758 159.383 -175.053
lowerback 64.7663 -3.8441 7.28663
upperback 10.8131 0.320845 -4.80906
thorax -9.23657 0.887366 -8.79013
lowerneck 1.78154 -7.12694 -3.467
upperneck 2.05019 -9.55387 4.59506
head 0.75164 -4.76672 1.97484
rclavicle -1.11319e-014 -3.10104e-014
rhumerus 13.1921 5.42614 -74.9415
rradius 14.2223
rwrist 33.9487
rhand -26.0868 18.5653
rfingers 7.12502
rthumb 0.461883 -11.4139
lclavicle -1.11319e-014 -3.10104e-014
lhumerus -20.7298 -1.39147 89.1083
lradius 42.498
lwrist 0.988119
lhand -12.8456 -9.52128
lfingers 7.12502
lthumb 13.242 20.0381
rfemur -36.3295 -4.70528 12.4091
rtibia 50.534
rfoot -23.096 -10.1667
rtoes -14.2073
lfemur -39.3308 -10.1793 -17.5875
ltibia 46.5325
lfoot -15.369 -9.63564
ltoes -13.1192
280
root 1.00115 17.155 -17.7097 189.251 159.683 -175.234
lowerback 64.0209 -3.74596 7.18438
upperback 10.8477 0.2866 -4.77163
thorax -9.21533 0.850397 -8.68802
lowerneck 1.91755 -7.01302 -3.70255
upperneck 1.85541 -9.40819 4.64739
head 0.675977 -4.69951 2.04319
rclavicle -6.36111e-015 2.62396e-014
rhumerus 12.0965 6.11801 -75.0016
rradius 14.4338
rwrist 33.4534
rhand -25.8704 18.4654
rfingers 7.12502
rthumb 0.670918 -11.5133
lclavicle -6.36111e-015 2.62396e-014
lhumerus -20.608 -0.65721 88.9278
lradius 41.8886
lwrist 0.537915
lhand -13.1308 -9.16797
lfingers 7.12502
lthumb 12.9671 20.4091
rfemur -35.4824 -4.52589 12.6174
rtibia 49.9555
rfoot -22.9339 -10.1083
rtoes -14.2599
lfemur -38.4177 -10.2462 -17.447
ltibia 46.1297
lfoot -15.4473 -9.26002
ltoes -13.16
